<svg width="22" height="18" viewBox="0 0 22 18" fill="none" xmlns="http://www.w3.org/2000/svg">
<path d="M11.3758 0.807167L15.1056 4.30669C16.1731 5.25835 17.0108 5.69723 18.0821 5.94113C18.6584 6.0723 19.119 6.54363 19.1184 7.13802C19.1178 7.81873 18.5716 8.40948 17.8024 8.41007C17.0333 8.41066 0.02893 8.42341 0.02893 8.42341C0.0135146 8.42345 0.00100789 8.43496 0.000995656 8.44912L9.85519e-09 9.57001C-1.28046e-05 9.58422 0.0124728 9.59568 0.0278876 9.59568L17.8014 9.5823C19.3658 9.58113 19.5485 11.7201 18.0697 12.0494C16.9628 12.296 16.0889 12.7457 14.9532 13.7911L11.3591 17.1931C11.3486 17.203 11.3486 17.2189 11.3591 17.2288L12.1655 17.9923C12.1765 18.0027 12.1947 18.0026 12.2057 17.9921L21.9922 9.02786C22.0026 9.01788 22.0026 9.00215 21.9922 8.99225L12.2225 0.00783285C12.2116 -0.00259648 12.1934 -0.00261358 12.1824 0.00779744L11.3758 0.771316C11.3652 0.781317 11.3652 0.797228 11.3758 0.807167Z" fill="#0D0D0E"/>
</svg>
