<svg width="112" height="112" viewBox="0 0 112 112" fill="none" xmlns="http://www.w3.org/2000/svg">
<rect x="111.5" y="111.5" width="111" height="111" rx="55.5" transform="rotate(-180 111.5 111.5)" fill="#0D0D0E"/>
<rect x="111.5" y="111.5" width="111" height="111" rx="55.5" transform="rotate(-180 111.5 111.5)" stroke="#6F6F6F"/>
<path d="M55.2825 71.4754L48.162 64.8651C46.124 63.0676 44.5249 62.2386 42.4795 61.7779C41.3794 61.5301 40.5001 60.6398 40.5012 59.5171C40.5023 58.2313 41.5452 57.1154 43.0135 57.1143C44.4818 57.1132 76.9448 57.0891 76.9448 57.0891C76.9742 57.089 76.9981 57.0673 76.9981 57.0406L77 54.9233C77 54.8965 76.9762 54.8748 76.9468 54.8748L43.0154 54.9001C40.029 54.9023 39.6802 50.8621 42.5033 50.24C44.6165 49.7742 46.2848 48.9248 48.453 46.9503L55.3143 40.5243C55.3345 40.5054 55.3345 40.4755 55.3144 40.4567L53.7749 39.0147C53.7539 38.995 53.7191 38.9951 53.6982 39.015L35.0148 55.9474C34.9951 55.9662 34.9951 55.9959 35.0148 56.0146L53.6662 72.9852C53.687 73.0049 53.7217 73.0049 53.7427 72.9853L55.2826 71.5431C55.3028 71.5242 55.3027 71.4941 55.2825 71.4754Z" fill="white"/>
</svg>
