<svg width="23" height="18" viewBox="0 0 23 18" fill="none" xmlns="http://www.w3.org/2000/svg">
<path d="M11.8758 0.807167L15.6056 4.30669C16.6731 5.25835 17.5108 5.69723 18.5821 5.94113C19.1584 6.0723 19.619 6.54362 19.6184 7.13802C19.6178 7.81873 19.0716 8.40948 18.3024 8.41007C17.5333 8.41065 0.52893 8.42341 0.52893 8.42341C0.513515 8.42345 0.501008 8.43495 0.500996 8.44912L0.5 9.57001C0.499987 9.58421 0.512473 9.59568 0.527888 9.59568L18.3014 9.5823C19.8658 9.58112 20.0485 11.7201 18.5697 12.0494C17.4628 12.296 16.5889 12.7457 15.4532 13.791L11.8591 17.193C11.8486 17.203 11.8486 17.2189 11.8591 17.2288L12.6655 17.9922C12.6765 18.0027 12.6947 18.0026 12.7057 17.9921L22.4922 9.02786C22.5026 9.01788 22.5026 9.00215 22.4922 8.99225L12.7225 0.00783285C12.7116 -0.00259648 12.6934 -0.00261358 12.6824 0.00779744L11.8758 0.771315C11.8652 0.781317 11.8652 0.797228 11.8758 0.807167Z" fill="white"/>
</svg>
