<svg width="76" height="76" viewBox="0 0 76 76" fill="none" xmlns="http://www.w3.org/2000/svg">
<rect x="0.5" y="0.5" width="75" height="75" rx="37.5" stroke="white" stroke-opacity="0.8"/>
<g clip-path="url(#clip0_133_68)">
<path d="M46.1928 38.3758L42.6933 42.1056C41.7417 43.1731 41.3028 44.0108 41.0589 45.0821C40.9277 45.6584 40.4564 46.119 39.862 46.1184C39.1813 46.1178 38.5905 45.5716 38.5899 44.8024C38.5893 44.0333 38.5766 27.0289 38.5766 27.0289C38.5765 27.0135 38.565 27.001 38.5509 27.001L37.43 27C37.4158 27 37.4043 27.0125 37.4043 27.0279L37.4177 44.8014C37.4189 46.3658 35.2799 46.5485 34.9506 45.0697C34.704 43.9628 34.2543 43.0889 33.2089 41.9532L29.8069 38.3591C29.797 38.3486 29.7811 38.3486 29.7712 38.3591L29.0077 39.1655C28.9973 39.1765 28.9974 39.1947 29.0079 39.2057L37.9721 48.9922C37.9821 49.0026 37.9978 49.0026 38.0077 48.9922L46.9922 39.2225C47.0026 39.2116 47.0026 39.1934 46.9922 39.1824L46.2287 38.3758C46.2187 38.3652 46.2028 38.3652 46.1928 38.3758Z" fill="white"/>
</g>
<circle opacity="0.4" cx="38" cy="38" r="24.7" stroke="white" stroke-width="0.6"/>
<defs>
<clipPath id="clip0_133_68">
<rect width="22" height="18" fill="white" transform="translate(47 27) rotate(90)"/>
</clipPath>
</defs>
</svg>
