<?xml version="1.0" encoding="utf-8"?>
<!-- Generator: Adobe Illustrator 26.0.1, SVG Export Plug-In . SVG Version: 6.00 Build 0)  -->
<svg version="1.1" id="Layer_1" xmlns="http://www.w3.org/2000/svg" xmlns:xlink="http://www.w3.org/1999/xlink" x="0px" y="0px"
	 viewBox="0 0 354.3 269.3" style="enable-background:new 0 0 354.3 269.3;" xml:space="preserve">
<style type="text/css">
	.st0{fill:#FFFFFF;}
	.st1{fill:url(#SVGID_1_);}
	.st2{fill:url(#SVGID_00000117649720499316368640000017889255049626553277_);}
	.st3{fill:url(#SVGID_00000016058360734351279500000012189707615442722461_);}
	.st4{fill:url(#SVGID_00000119814506150173430130000006468739212900916363_);}
	.st5{fill:url(#SVGID_00000072270329261133063950000009852181942450869945_);}
	.st6{fill:url(#SVGID_00000152962894463018913630000003069809619683174277_);}
	.st7{fill:url(#SVGID_00000055702316297970992730000001429100558103599000_);}
	.st8{fill:url(#SVGID_00000011024440939075075270000003493763583440332460_);}
	.st9{fill:url(#SVGID_00000031205669771049162590000001735680229126160812_);}
	.st10{fill:url(#SVGID_00000136373606610237585700000017904607758961687170_);}
	.st11{fill:url(#SVGID_00000085227238294211046500000002933663395631987888_);}
	.st12{fill:url(#SVGID_00000132789395332450935930000011304204323881235342_);}
	.st13{fill:url(#SVGID_00000079483557006705433510000003462594890478539426_);}
</style>
<g>
	<path class="st0" d="M7.4,222.5h10.7c0.8,4,4.1,6.1,8.7,6.1c3.8,0,6.8-0.9,6.8-3.3c0-2.6-2.4-3.1-8.6-4.5
		C17.3,219.2,8.3,217,8.3,208c0-8.9,9.1-12.3,17.5-12.3c9.1,0,18.1,3.9,19.1,14.5H33.7c-0.8-3.7-4-5.5-8.2-5.5c-2.5,0-6,0.7-6,3.3
		c0,2.7,3.4,3.3,8.9,4.5c8.5,1.9,16.4,4.3,16.4,12.8c0,7.4-6.5,12.3-18.1,12.3C16.5,237.5,8.2,232.9,7.4,222.5z"/>
	<path class="st0" d="M49.6,216.6c0-12,9-20.9,21.1-20.9s21.1,8.9,21.1,20.9s-9.1,20.9-21.1,20.9S49.6,228.6,49.6,216.6z
		 M80.8,216.6c0-6-4.4-10.5-10.1-10.5c-5.8,0-10.1,4.5-10.1,10.5s4.3,10.5,10.1,10.5C76.4,227.1,80.8,222.6,80.8,216.6z"/>
	<path class="st0" d="M98.7,196.5h18l7.5,26.9l7.5-26.9h17.8v40.1h-10.5v-31.6l-8.8,31.6h-12.3l-8.7-31.6v31.6H98.7V196.5z"/>
	<path class="st0" d="M158.3,216.6c0-12.2,8.5-20.9,20.5-20.9c10.4,0,18.1,6.5,19.4,16.4h-3.4c-1.4-8-7.5-13.1-15.9-13.1
		c-10,0-17.1,7.2-17.1,17.7c0,10.4,7.1,17.7,17.1,17.7c8.5,0,14.5-5.1,15.9-13.1h3.4c-1.4,9.9-9,16.4-19.4,16.4
		C166.9,237.5,158.3,228.8,158.3,216.6z"/>
	<path class="st0" d="M208.8,196.5h3.4V215h25.4v-18.5h3.4v40.1h-3.4v-18.5h-25.4v18.5h-3.4V196.5z"/>
	<path class="st0" d="M266.2,196.5h4.5l16.8,40.1h-3.7l-4.9-11.8h-20.9l-4.9,11.8h-3.6L266.2,196.5z M277.7,221.9l-9.3-22.4h-0.1
		l-9.3,22.4H277.7z"/>
	<path class="st0" d="M295.7,196.5h3.4v40.1h-3.4V196.5z"/>
	<path class="st0" d="M313.8,196.5h3.7l26.5,35.2v-35.2h3.3v40.1h-3.7l-26.5-35.2v35.2h-3.3V196.5z"/>
</g>
<g>
	<path class="st0" d="M39.2,256.3H35V255h9.7v1.3h-4.2v9.5h-1.4V256.3z"/>
	<path class="st0" d="M46.9,255h6.6v1.2h-5.2v3.6H52v1.2h-3.7v3.6h5.8v1.2h-7.2V255z"/>
	<path class="st0" d="M55.2,260.4c0-3.3,2.3-5.6,5.5-5.6c2.8,0,4.9,1.8,5.2,4.5h-1.4c-0.3-1.9-1.8-3.2-3.8-3.2
		c-2.4,0-4.1,1.8-4.1,4.3c0,2.5,1.7,4.3,4.1,4.3c2,0,3.5-1.2,3.8-3.2h1.4c-0.3,2.7-2.4,4.5-5.2,4.5C57.5,266,55.2,263.7,55.2,260.4z
		"/>
	<path class="st0" d="M68.6,255H70v4.8h6.2V255h1.4v10.8h-1.4v-4.8H70v4.8h-1.4V255z"/>
	<path class="st0" d="M81.2,255h1.5l6.5,8.8V255h1.3v10.8H89l-6.5-8.8v8.8h-1.3L81.2,255L81.2,255z"/>
	<path class="st0" d="M93.2,260.4c0-3.2,2.4-5.6,5.6-5.6s5.6,2.4,5.6,5.6c0,3.2-2.4,5.6-5.6,5.6C95.6,266,93.2,263.6,93.2,260.4z
		 M103.1,260.4c0-2.5-1.8-4.3-4.2-4.3c-2.4,0-4.2,1.9-4.2,4.3c0,2.5,1.8,4.3,4.2,4.3C101.3,264.7,103.1,262.9,103.1,260.4z"/>
	<path class="st0" d="M107.2,255h1.4v9.5h5.7v1.3h-7.1V255z"/>
	<path class="st0" d="M115.7,260.4c0-3.2,2.4-5.6,5.6-5.6s5.6,2.4,5.6,5.6c0,3.2-2.4,5.6-5.6,5.6C118.1,266,115.7,263.6,115.7,260.4
		z M125.5,260.4c0-2.5-1.8-4.3-4.2-4.3c-2.4,0-4.2,1.9-4.2,4.3c0,2.5,1.8,4.3,4.2,4.3C123.7,264.7,125.5,262.9,125.5,260.4z"/>
	<path class="st0" d="M128.7,260.4c0-3.3,2.3-5.6,5.6-5.6c2.7,0,4.7,1.7,5.2,4.2H138c-0.4-1.8-1.8-2.9-3.7-2.9
		c-2.4,0-4.1,1.8-4.1,4.4c0,2.6,1.7,4.4,4.2,4.4c2.1,0,3.7-1.4,4-3.4v-0.1h-3.9v-1.2h5.1v5.7h-1.2v-2.1c-0.8,1.4-2.3,2.3-4.2,2.3
		C131,266,128.7,263.7,128.7,260.4z"/>
	<path class="st0" d="M144.9,261.8l-4.6-6.8h1.7l3.7,5.4l3.7-5.4h1.6l-4.6,6.8v4h-1.4V261.8z"/>
	<path class="st0" d="M151.2,265c0-0.5,0.4-0.9,0.9-0.9c0.5,0,0.9,0.4,0.9,0.9c0,0.5-0.4,0.9-0.9,0.9
		C151.6,265.9,151.2,265.5,151.2,265z"/>
	<path class="st0" d="M158.9,260.4c0-3.3,2.3-5.6,5.5-5.6c2.8,0,4.9,1.8,5.2,4.5h-1.4c-0.3-1.9-1.8-3.2-3.8-3.2
		c-2.4,0-4.1,1.8-4.1,4.3c0,2.5,1.7,4.3,4.1,4.3c2,0,3.5-1.2,3.8-3.2h1.4c-0.3,2.7-2.4,4.5-5.2,4.5
		C161.2,266,158.9,263.7,158.9,260.4z"/>
	<path class="st0" d="M172.3,255h3.6c2.5,0,4.1,1.2,4.1,3.3c0,1.6-1,2.7-2.6,3.1l3.5,4.4h-1.7l-3.3-4.2c0,0-0.1,0-0.2,0h-2.1v4.2
		h-1.4V255z M176,260.4c1.7,0,2.7-0.8,2.7-2.1c0-1.3-1-2.1-2.7-2.1h-2.3v4.2H176z"/>
	<path class="st0" d="M183.1,255h6.6v1.2h-5.2v3.6h3.7v1.2h-3.7v3.6h5.8v1.2h-7.2V255z"/>
	<path class="st0" d="M195.3,255h1.9l4.4,10.8H200l-1.2-2.9h-5.3l-1.2,2.9h-1.5L195.3,255z M198.4,261.8l-2.2-5.5h0l-2.2,5.5H198.4z
		"/>
	<path class="st0" d="M205.4,256.3h-4.2V255h9.7v1.3h-4.2v9.5h-1.4V256.3z"/>
	<path class="st0" d="M213.2,255h1.4v10.8h-1.4V255z"/>
	<path class="st0" d="M216.7,255h1.5l3.8,9.5h0l3.8-9.5h1.5l-4.4,10.8h-1.8L216.7,255z"/>
	<path class="st0" d="M229.6,255h1.4v10.8h-1.4V255z"/>
	<path class="st0" d="M237.4,256.3h-4.2V255h9.7v1.3h-4.2v9.5h-1.4V256.3z"/>
	<path class="st0" d="M248,261.8l-4.6-6.8h1.7l3.7,5.4l3.7-5.4h1.6l-4.6,6.8v4H248V261.8z"/>
	<path class="st0" d="M254.3,265c0-0.5,0.4-0.9,0.9-0.9c0.5,0,0.9,0.4,0.9,0.9c0,0.5-0.4,0.9-0.9,0.9
		C254.7,265.9,254.3,265.5,254.3,265z"/>
	<path class="st0" d="M262.9,255h6.8v1.3h-5.4v3.5h4v1.3h-4v4.8h-1.4L262.9,255L262.9,255z"/>
	<path class="st0" d="M271.6,261.1V255h1.4v6.1c0,2.2,1.3,3.6,3.3,3.6c2.1,0,3.3-1.4,3.3-3.6V255h1.4v6.1c0,3-1.9,4.9-4.7,4.9
		C273.4,266,271.6,264.1,271.6,261.1z"/>
	<path class="st0" d="M287,256.3h-4.2V255h9.7v1.3h-4.2v9.5H287V256.3z"/>
	<path class="st0" d="M294.4,261.1V255h1.4v6.1c0,2.2,1.3,3.6,3.3,3.6c2.1,0,3.3-1.4,3.3-3.6V255h1.4v6.1c0,3-1.9,4.9-4.7,4.9
		C296.3,266,294.4,264.1,294.4,261.1z"/>
	<path class="st0" d="M307.3,255h3.6c2.5,0,4.1,1.2,4.1,3.3c0,1.6-1,2.7-2.6,3.1l3.5,4.4h-1.7l-3.3-4.2c0,0-0.1,0-0.2,0h-2.1v4.2
		h-1.4V255z M311,260.4c1.7,0,2.7-0.8,2.7-2.1c0-1.3-1-2.1-2.7-2.1h-2.3v4.2H311z"/>
	<path class="st0" d="M318,255h6.6v1.2h-5.2v3.6h3.7v1.2h-3.7v3.6h5.8v1.2H318V255z"/>
</g>
<g>
	
		<linearGradient id="SVGID_1_" gradientUnits="userSpaceOnUse" x1="232.7156" y1="113.3421" x2="156.957" y2="253.0748" gradientTransform="matrix(1 0 0 -1 0 269.2869)">
		<stop  offset="0" style="stop-color:#46ECB2"/>
		<stop  offset="1" style="stop-color:#0E7CEA"/>
	</linearGradient>
	<path class="st1" d="M137.2,32.1c2.8,1.7,5.9,2.3,9.1,1.9c2-0.3,3.8-0.9,5.6-2c0.5-0.3,1-0.3,1.5,0c1.2,0.8,2.5,1.5,3.8,2.2
		c3.2,1.8,6.4,3.7,9.6,5.5c2,1.2,4,2.4,6,3.5c2.8,1.6,5.7,3.2,8.6,4.9c3.9,2.3,7.8,4.6,11.8,6.9c0.7,0.4,1,0.9,1.1,1.7
		c0.3,3.3,0.6,6.6,1,9.9c0.1,0.6,0,0.9-0.5,1.3c-2.3,2-4.6,4.1-6.9,6.2c-0.2,0.2-0.5,0.4-0.8,0.7c2.4,0.3,4.4,1.2,6,3
		c1.5,1.7,2.4,3.8,2.3,6.2c0.2-0.2,0.3-0.2,0.4-0.3c0.4-0.4,0.8-0.8,1.3-1.2c3-2.7,6.1-5.4,9.1-8.2c1.5-1.4,2.1-3.1,1.9-5.1
		c-0.1-1.1-0.2-2.2-0.4-3.3c-0.5-5-1.1-10-1.6-15.1c-0.2-1.7-0.9-3.1-2.3-4.1c-1.6-1.1-3.3-2.1-5-3c-6.2-3.6-12.4-7.2-18.5-10.7
		c-3.7-2.1-7.4-4.3-11.2-6.4c-3.3-1.9-6.5-3.8-9.8-5.7c-0.2-0.1-0.4-0.5-0.4-0.7c-0.1-0.7,0-1.4,0-2.1c-0.6-4.5-2.7-8.1-6.5-10.6
		c-4.8-3.1-9.8-3.3-14.8-0.6c-4.8,2.6-7.5,6.9-7.6,12.4C130,25,132.4,29.3,137.2,32.1z M144.3,10.4c5-0.1,9.3,3.7,9.4,9.2
		c0.1,4.5-3.3,9.4-9.3,9.4c-5,0.1-9.3-4.1-9.4-9.2C135.1,14.7,139.1,10.5,144.3,10.4z"/>
	
		<linearGradient id="SVGID_00000058583607871285152250000002392512450817946025_" gradientUnits="userSpaceOnUse" x1="249.2321" y1="122.2969" x2="173.4735" y2="262.0296" gradientTransform="matrix(1 0 0 -1 0 269.2869)">
		<stop  offset="0" style="stop-color:#46ECB2"/>
		<stop  offset="1" style="stop-color:#0E7CEA"/>
	</linearGradient>
	<path style="fill:url(#SVGID_00000058583607871285152250000002392512450817946025_);" d="M270.5,85.7c-2.4-3.6-5.7-5.8-10-6.4
		c-4-0.6-7.6,0.4-10.8,2.9c-3.7,2.9-5.6,6.8-5.7,11.5c0,0.8-0.2,1.2-0.9,1.6c-3.1,1.7-6.2,3.5-9.3,5.3c-2.9,1.7-5.7,3.3-8.6,5
		c-3.6,2.1-7.2,4.2-10.8,6.3c-3.8,2.2-7.6,4.4-11.4,6.6c-0.2,0.1-0.6,0.2-0.8,0.1c-3.2-1.4-6.4-2.8-9.6-4.2
		c-0.6-0.3-1.1-0.6-1.2-1.3c-0.4-1.9-0.8-3.8-1.2-5.8c-0.3-1.3-0.6-2.6-0.9-4c-3.4,4.1-7.5,4.6-12.2,2.6c0.1,0.5,0.2,0.8,0.3,1.2
		c0.9,4.1,1.7,8.1,2.6,12.2c0.4,2,1.4,3.7,3.3,4.6c2.7,1.3,5.5,2.5,8.2,3.8c2.9,1.3,5.8,2.6,8.7,3.9c2,0.9,3.9,0.8,5.7-0.2
		c2-1.1,4-2.3,6-3.4c4-2.3,7.9-4.6,11.9-6.9c4.8-2.8,9.6-5.5,14.4-8.3c3.8-2.2,7.7-4.4,11.5-6.6c0.2-0.1,0.5-0.1,0.7,0
		c3.1,2,6.5,2.7,10.2,2.1c4.9-0.8,8.5-3.6,10.6-8C273.7,95.1,273.4,90.2,270.5,85.7z M258.6,102.9c-5.3,0.1-9.3-3.9-9.5-9
		c-0.2-5.1,3.9-9.4,8.9-9.6c5.3-0.2,9.7,4,9.7,9.2C267.9,97.5,265,102.8,258.6,102.9z"/>
	
		<linearGradient id="SVGID_00000053532289668288688630000013254672449505191078_" gradientUnits="userSpaceOnUse" x1="207.014" y1="99.4075" x2="131.2553" y2="239.1402" gradientTransform="matrix(1 0 0 -1 0 269.2869)">
		<stop  offset="0" style="stop-color:#46ECB2"/>
		<stop  offset="1" style="stop-color:#0E7CEA"/>
	</linearGradient>
	<path style="fill:url(#SVGID_00000053532289668288688630000013254672449505191078_);" d="M218.7,145.3c-3.9-0.8-7.5-0.1-10.8,2.1
		c-0.1,0.1-0.4,0.1-0.5,0.1c-1.4-0.9-2.9-1.8-4.3-2.6c-6-3.5-12-7-18.1-10.4c-6-3.5-12-6.9-18.1-10.4c-0.5-0.3-0.8-0.7-0.8-1.3
		c-0.3-3.3-0.6-6.5-1-9.8c-0.1-0.9,0.1-1.4,0.8-2c2.4-2,4.7-4.1,7-6.2c0.1-0.1,0.2-0.2,0.3-0.4c-5.3-0.9-7.8-4.1-8.4-9.3
		c-0.2,0.2-0.4,0.3-0.5,0.4c-0.5,0.5-1,1-1.5,1.5c-2.8,2.5-5.6,5-8.4,7.5c-1.5,1.4-2.3,3.1-2.1,5.2c0.3,3.1,0.6,6.2,1,9.2
		c0.4,3.2,0.7,6.3,1.1,9.5c0.2,1.6,0.9,2.9,2.2,3.8c0.8,0.6,1.6,1.1,2.4,1.5c3.2,1.9,6.5,3.7,9.7,5.6c4,2.3,8.1,4.6,12.1,7
		c4.7,2.7,9.4,5.5,14.1,8.2c2.1,1.2,4.1,2.4,6.2,3.6c0.3,0.2,0.5,0.4,0.5,0.8c-0.2,2.5,0.4,4.8,1.5,7c1.8,3.6,4.6,6,8.4,7.3
		c4.4,1.5,8.6,0.9,12.4-1.6c3.4-2.2,5.4-5.3,6.2-9.3c0.9-4.1,0-7.9-2.4-11.3C225.3,147.9,222.4,146,218.7,145.3z M215.6,168.8
		c-5.1,0-9.3-4.4-9.2-9.5c0.1-5.4,4.5-9.1,9.4-9.1c5.2,0,9.3,4.3,9.3,9.4C225.1,163.8,221.7,168.8,215.6,168.8z"/>
	
		<linearGradient id="SVGID_00000139287112771828132500000010429196840174415752_" gradientUnits="userSpaceOnUse" x1="190.4869" y1="90.447" x2="114.7281" y2="230.1797" gradientTransform="matrix(1 0 0 -1 0 269.2869)">
		<stop  offset="0" style="stop-color:#46ECB2"/>
		<stop  offset="1" style="stop-color:#0E7CEA"/>
	</linearGradient>
	<path style="fill:url(#SVGID_00000139287112771828132500000010429196840174415752_);" d="M116.1,84.8c0-0.4,0.1-0.6,0.4-0.7
		c4.3-2.4,8.5-4.9,12.7-7.3c5.1-3,10.2-5.9,15.4-8.9c4.2-2.4,8.3-4.8,12.5-7.2c0.2-0.1,0.6-0.1,0.8,0c1.1,0.4,2.1,0.9,3.1,1.4
		c2.2,1,4.3,1.9,6.5,2.9c0.5,0.2,0.9,0.5,1,1.1c0.5,2.5,1.1,5.1,1.6,7.6c0.2,0.8,0.3,1.6,0.5,2.7c1.4-2.2,3.4-3.2,5.6-3.8
		c2.3-0.7,4.5,0,6.6,1.1c-0.2-1.1-0.4-2-0.5-2.9c-0.7-3.2-1.3-6.3-2-9.5c-0.3-1.2-0.6-2.4-1.1-3.4c-0.7-1.6-2.2-2.3-3.7-2.9
		c-5.3-2.4-10.6-4.7-16-7.1c-1.7-0.7-3.3-0.8-5,0.1c-3,1.7-6.1,3.4-9.1,5.2c-3.5,2-7.1,4.1-10.6,6.2c-2.9,1.7-5.9,3.4-8.8,5.1
		c-3.7,2.1-7.3,4.2-11,6.3c-1.6,1-3.2,2-4.8,2.9c-0.1,0.1-0.5,0-0.6-0.1c-0.7-0.4-1.4-0.9-2.2-1.2c-2.6-1.1-5.3-1.4-8.1-0.9
		c-6.4,1-11.7,6.5-11.9,13.4c-0.1,2.9,0.3,5.6,1.8,8.1c4.4,7.6,14.5,9.7,21.4,4.2C114.5,93.8,116.3,89.7,116.1,84.8z M102,94.8
		c-5.3,0.1-9.4-3.9-9.6-9.2c-0.1-4.5,3.6-9.4,9.2-9.4c5.5,0,9.4,4.2,9.4,9.2C111.1,90.1,107.8,94.6,102,94.8z"/>
	
		<linearGradient id="SVGID_00000127020639114217086070000011316552377004061876_" gradientUnits="userSpaceOnUse" x1="180.6692" y1="85.1242" x2="104.8858" y2="224.9023" gradientTransform="matrix(1 0 0 -1 0 269.2869)">
		<stop  offset="0" style="stop-color:#46ECB2"/>
		<stop  offset="1" style="stop-color:#0E7CEA"/>
	</linearGradient>
	<path style="fill:url(#SVGID_00000127020639114217086070000011316552377004061876_);" d="M144,142.5c-0.2-0.1-0.4-0.4-0.4-0.6
		c-0.1-0.5,0-1,0-1.4c0-15,0-30.1,0-45.1c0-0.7,0.2-1.1,0.8-1.5c2.9-2.1,5.8-4.1,8.7-6.2c0.2-0.1,0.5-0.2,0.8-0.1
		c3.2,1.1,6.4,2.2,9.6,3.3c0.1,0,0.2,0,0.4,0.1c-1.8-4.9-0.7-9,3.9-11.9c-0.3-0.1-0.5-0.2-0.7-0.2c-1.3-0.4-2.6-0.9-3.9-1.3
		c-3-1-5.9-1.9-8.9-2.9c-1.7-0.6-3.4-0.5-5,0.5c-0.8,0.5-1.6,1-2.3,1.6c-2.3,1.7-4.6,3.3-6.9,5c-2.2,1.6-4.3,3.2-6.5,4.8
		c-1.2,0.9-2,2.1-2.2,3.6c-0.1,1.2-0.1,2.4-0.1,3.6c0,16,0,32.1,0,48.1c0,0.3-0.1,0.6-0.4,0.7c-3.2,1.7-5.5,4.2-6.8,7.6
		c-2.4,6.3,0,13.7,5.5,17.3c5.2,3.4,12.2,3.2,17-0.7c2.9-2.3,4.6-5.3,5.2-9C152.8,151.6,149.6,145.3,144,142.5z M137.6,164.7
		c-5,0.1-9.3-4.1-9.4-9c-0.1-5.5,4.1-9.7,9.3-9.7c4.9,0,9.3,4.1,9.3,9.3C146.8,160,143.2,164.6,137.6,164.7z"/>
	
		<linearGradient id="SVGID_00000029044397124125502110000006788597777635167420_" gradientUnits="userSpaceOnUse" x1="259.1049" y1="127.6496" x2="183.3719" y2="267.3351" gradientTransform="matrix(1 0 0 -1 0 269.2869)">
		<stop  offset="0" style="stop-color:#46ECB2"/>
		<stop  offset="1" style="stop-color:#0E7CEA"/>
	</linearGradient>
	<path style="fill:url(#SVGID_00000029044397124125502110000006788597777635167420_);" d="M215.7,36.3c0.6,0.3,0.8,0.6,0.8,1.3
		c0,9.3,0,18.7,0,28c0,6,0,12.1,0,18.1c0,0.8-0.2,1.2-0.9,1.6c-0.7,0.4-1.3,0.8-1.9,1.3c-2.1,1.5-4.2,3.1-6.2,4.7
		c-0.4,0.3-0.8,0.4-1.3,0.2c-2.9-1-5.8-1.9-8.6-2.8c-0.4-0.1-0.7-0.2-1.2-0.4c1.7,5,0.5,9-3.8,12c0.5,0.1,0.8,0.2,1.1,0.3
		c3.8,1.3,7.7,2.5,11.5,3.9c2.6,0.9,4.9,0.6,7-1.1c1.1-0.8,2.2-1.6,3.2-2.4c3.4-2.5,6.8-5,10.2-7.5c0.7-0.5,1.4-1.1,2-1.8
		c1.1-1.3,1.2-2.9,1.2-4.5c0-9.1,0-18.3,0-27.4c0-7.4,0-14.8,0-22.2c0-0.3,0.2-0.6,0.4-0.8c0.8-0.6,1.7-1.1,2.4-1.7
		c4-3.4,5.7-7.7,5.3-12.9c-0.6-7-6.8-12.3-13-12.8c-4.3-0.3-8,1-11.2,3.8c-2.1,1.9-3.5,4.2-4.2,6.9c-0.6,2.4-0.6,4.8,0,7.2
		C209.9,31.2,212.1,34.3,215.7,36.3z M222.8,14.4c5,0,9.3,4.2,9.3,9.1c0,5.5-4,9.5-9.5,9.5c-4.9,0-9.1-4.2-9.2-9.1
		C213.4,18.7,217.6,14.4,222.8,14.4z"/>
	
		<linearGradient id="SVGID_00000111872155550942332380000006723596329834277289_" gradientUnits="userSpaceOnUse" x1="253.0688" y1="124.377" x2="177.3102" y2="264.1097" gradientTransform="matrix(1 0 0 -1 0 269.2869)">
		<stop  offset="0" style="stop-color:#46ECB2"/>
		<stop  offset="1" style="stop-color:#0E7CEA"/>
	</linearGradient>
	<path style="fill:url(#SVGID_00000111872155550942332380000006723596329834277289_);" d="M166.5,14.2c2.5,1.4,4.9,2.8,7.4,4.2
		c5.7,3.3,11.4,6.6,17.1,9.9c3.7,2.1,7.3,4.3,11,6.4c0.7,0.4,0.9,0.4,1.3-0.3c1-1.8,1.6-3.7,1.5-5.7c0-2.3-0.8-4.7-1.9-6.5
		c-1.2-1.8-2.9-3.1-4.7-4.1c-1.8-1-3.5-2-5.3-3c-4-2.3-7.9-4.6-11.9-6.9c-2.8-1.6-5.9-1.7-8.9-0.7c-2.5,0.8-4.5,2.3-6.1,4.5
		C165.1,13.4,165,13.4,166.5,14.2z"/>
	
		<linearGradient id="SVGID_00000028310966260955122130000009641979772275704761_" gradientUnits="userSpaceOnUse" x1="192.8875" y1="91.7485" x2="117.1288" y2="231.4813" gradientTransform="matrix(1 0 0 -1 0 269.2869)">
		<stop  offset="0" style="stop-color:#46ECB2"/>
		<stop  offset="1" style="stop-color:#0E7CEA"/>
	</linearGradient>
	<path style="fill:url(#SVGID_00000028310966260955122130000009641979772275704761_);" d="M107.4,64.1c6.2-3.6,12.4-7.2,18.5-10.8
		c5.9-3.4,11.9-6.9,17.8-10.3c0.8-0.5,0.8-0.5,0.3-1.3c-0.1-0.1-0.2-0.2-0.2-0.3c-2.4-3.4-5.7-5.2-10.3-5.4
		c-0.6,0.1-1.8,0.2-2.7,0.6c-1.6,0.6-3.2,1.4-4.8,2.3c-4.9,2.8-9.8,5.7-14.7,8.5c-1.5,0.9-2.9,1.9-4,3.3c-2.9,3.7-3.3,9.1-0.9,13.2
		C106.7,64.4,106.8,64.4,107.4,64.1z"/>
	
		<linearGradient id="SVGID_00000108276909400275624290000007850155803126072504_" gradientUnits="userSpaceOnUse" x1="246.8975" y1="121.031" x2="171.1389" y2="260.7639" gradientTransform="matrix(1 0 0 -1 0 269.2869)">
		<stop  offset="0" style="stop-color:#46ECB2"/>
		<stop  offset="1" style="stop-color:#0E7CEA"/>
	</linearGradient>
	<path style="fill:url(#SVGID_00000108276909400275624290000007850155803126072504_);" d="M253,114.9c-2,1.2-3.9,2.3-5.9,3.4
		c-3,1.7-6,3.5-9.1,5.2c-4,2.3-8.1,4.7-12.1,7c-3.3,1.9-6.5,3.8-9.8,5.7c-0.4,0.2-0.4,0.4-0.2,0.7c0.3,0.4,0.6,0.9,0.9,1.3
		c2.4,3.1,5.6,4.6,9.2,4.8c1.7,0,3.1-0.2,4.3-0.9c2.3-1.2,4.6-2.5,6.9-3.8c3.9-2.2,7.8-4.5,11.8-6.8c2.5-1.4,4.4-3.4,5.5-6.1
		c1.4-3.5,1.1-7-0.7-10.3C253.6,114.8,253.4,114.7,253,114.9z"/>
	
		<linearGradient id="SVGID_00000088841576591673700620000016644223507841728659_" gradientUnits="userSpaceOnUse" x1="186.6808" y1="88.3835" x2="110.9221" y2="228.1162" gradientTransform="matrix(1 0 0 -1 0 269.2869)">
		<stop  offset="0" style="stop-color:#46ECB2"/>
		<stop  offset="1" style="stop-color:#0E7CEA"/>
	</linearGradient>
	<path style="fill:url(#SVGID_00000088841576591673700620000016644223507841728659_);" d="M194.2,165.1c-1.6-0.9-3.2-1.8-4.8-2.7
		c-3-1.7-6-3.5-9.1-5.3c-4.7-2.7-9.4-5.4-14.1-8.1c-3-1.7-5.9-3.4-8.9-5.1c-0.1,0.1-0.1,0.1-0.2,0.1c0,0-0.1,0.1-0.1,0.1
		c-1.7,2.7-2.1,5.7-1.4,8.8c0.7,3.2,2.4,5.6,5.2,7.3c2.7,1.6,5.4,3.2,8.1,4.8c3.2,1.8,6.4,3.7,9.6,5.5c1.7,0.9,3.5,1.7,5.4,1.7
		c4.7,0,8.3-2.1,10.8-6.1c0.1-0.1,0-0.5-0.1-0.6C194.7,165.3,194.4,165.2,194.2,165.1z"/>
	
		<linearGradient id="SVGID_00000021118677013147966020000000572643972082742972_" gradientUnits="userSpaceOnUse" x1="280.282" y1="139.131" x2="204.5233" y2="278.8639" gradientTransform="matrix(1 0 0 -1 0 269.2869)">
		<stop  offset="0" style="stop-color:#46ECB2"/>
		<stop  offset="1" style="stop-color:#0E7CEA"/>
	</linearGradient>
	<path style="fill:url(#SVGID_00000021118677013147966020000000572643972082742972_);" d="M238.5,81.5c0,0.4,0,0.7,0.5,0.7
		c1.2-0.2,2.4-0.2,3.6-0.5c4.8-1.3,8.3-5.8,8.3-10.9c0-6.8,0-13.7,0-20.5c0-1.4-0.1-2.7-0.7-4c-1.9-4.7-5.4-7.1-10.3-7.6
		c-1.6-0.2-1.4-0.3-1.4,1.3c0,6.8,0,13.7,0,20.5l0,0c0,2.3,0,4.5,0,6.8C238.5,71.9,238.5,76.7,238.5,81.5z"/>
	
		<linearGradient id="SVGID_00000052827158394863337190000010063023291386797698_" gradientUnits="userSpaceOnUse" x1="159.3791" y1="73.5814" x2="83.6204" y2="213.3141" gradientTransform="matrix(1 0 0 -1 0 269.2869)">
		<stop  offset="0" style="stop-color:#46ECB2"/>
		<stop  offset="1" style="stop-color:#0E7CEA"/>
	</linearGradient>
	<path style="fill:url(#SVGID_00000052827158394863337190000010063023291386797698_);" d="M121.6,118.8c0-0.6,0-1.1,0-1.7
		c0-6.3,0-12.6,0-18.8c0-1.4,0-1.4-1.4-1.3c-2.2,0.1-4.3,0.8-6.1,2.1c-3.3,2.4-4.9,5.6-5,9.6c0,6.8-0.1,13.5,0,20.3
		c0,4.1,1.9,7.4,5.4,9.6c1.9,1.3,4.1,1.9,6.4,1.9c0.3,0,0.6,0,0.6-0.5C121.6,132.9,121.6,125.8,121.6,118.8
		C121.6,118.8,121.6,118.8,121.6,118.8z"/>
	
		<linearGradient id="SVGID_00000013185537051558163380000000535936603733553028_" gradientUnits="userSpaceOnUse" x1="219.866" y1="106.3754" x2="144.1073" y2="246.1082" gradientTransform="matrix(1 0 0 -1 0 269.2869)">
		<stop  offset="0" style="stop-color:#46ECB2"/>
		<stop  offset="1" style="stop-color:#0E7CEA"/>
	</linearGradient>
	<path style="fill:url(#SVGID_00000013185537051558163380000000535936603733553028_);" d="M186.9,80.3c-1.7-0.5-3.5-1.1-5.2-1.7
		c-1.2-0.4-2.4-0.7-3.6-1c-0.5,0.2-1,0.3-1.3,0.6c-1.1,0.8-2.2,1.7-3.2,2.6c-1.4,1.2-2.8,2.5-4.1,3.8c-0.9,0.9-1.3,2-0.9,3.3
		c0.2,0.5,0.3,1.1,0.4,1.6c0.5,2.2,0.9,4.3,1.4,6.5c0.3,1.3,1,2.2,2.4,2.6c2.3,0.7,4.7,1.5,6.9,2.3c1.9,0.7,3.5,0.6,5-0.9
		c1.9-1.8,3.9-3.5,5.8-5.3c0.8-0.8,1.4-1.7,1.2-3c-0.6-2.8-1.2-5.6-1.8-8.3C189.5,81.8,188.5,80.8,186.9,80.3z"/>
</g>
</svg>
